<?xml version="1.0" encoding="utf-8"?>
<!DOCTYPE svg PUBLIC "-//W3C//DTD SVG 1.1//EN" "http://www.w3.org/Graphics/SVG/1.1/DTD/svg11.dtd">
<svg version="1.1" id="Ebene_1" xmlns="http://www.w3.org/2000/svg" xmlns:xlink="http://www.w3.org/1999/xlink" x="0px" y="0px"
	 width="264.927px" height="61.715px" viewBox="0 0 264.927 61.715" enable-background="new 0 0 264.927 61.715"
	 xml:space="preserve">
<g>
	<g>
		<path fill="#3E3E40" d="M95.817,49.58h19.808v4.952H89.983V7.185h5.834V49.58z"/>
		<path fill="#3E3E40" d="M142.013,6.438c3.256,0,6.217,0.577,8.887,1.729c2.668,1.154,4.951,2.805,6.852,4.952
			c1.898,2.149,3.367,4.714,4.408,7.698c1.041,2.985,1.561,6.311,1.561,9.972c0,3.755-0.52,7.135-1.561,10.142
			c-1.041,3.008-2.533,5.575-4.477,7.699c-1.945,2.126-4.273,3.765-6.986,4.918c-2.715,1.153-5.766,1.729-9.158,1.729
			s-6.455-0.576-9.191-1.729s-5.088-2.78-7.055-4.884s-3.483-4.646-4.545-7.631c-1.062-2.984-1.594-6.309-1.594-9.972
			c0-3.799,0.542-7.213,1.627-10.244c1.086-3.028,2.623-5.606,4.613-7.731c1.989-2.125,4.386-3.765,7.19-4.919
			C135.388,7.015,138.53,6.438,142.013,6.438z M141.403,11.119c-2.398,0-4.58,0.475-6.547,1.424s-3.663,2.283-5.088,4.002
			c-1.424,1.719-2.521,3.788-3.289,6.207c-0.77,2.42-1.154,5.099-1.154,8.037c0,2.985,0.385,5.688,1.154,8.106
			c0.768,2.42,1.865,4.5,3.289,6.241c1.425,1.741,3.131,3.076,5.121,4.002c1.99,0.928,4.207,1.392,6.648,1.392
			c2.352,0,4.512-0.464,6.479-1.392c1.967-0.926,3.65-2.248,5.053-3.968c1.402-1.718,2.486-3.787,3.256-6.207
			c0.77-2.419,1.154-5.098,1.154-8.038c0-3.029-0.373-5.776-1.119-8.242c-0.746-2.464-1.822-4.545-3.223-6.24
			c-1.402-1.696-3.098-3.007-5.088-3.935C146.06,11.582,143.845,11.119,141.403,11.119z"/>
		<path fill="#3E3E40" d="M209.507,14.646c-1.855-0.995-3.811-1.741-5.867-2.239c-2.059-0.497-4.127-0.746-6.207-0.746
			c-2.895,0-5.551,0.453-7.971,1.356c-2.42,0.905-4.512,2.193-6.275,3.866c-1.762,1.675-3.131,3.687-4.104,6.037
			c-0.973,2.352-1.457,4.952-1.457,7.802c0,2.894,0.475,5.528,1.424,7.901c0.949,2.375,2.271,4.399,3.969,6.072
			c1.695,1.673,3.719,2.962,6.07,3.866s4.951,1.356,7.801,1.356c1.357,0,2.689-0.079,4.002-0.237
			c1.311-0.158,2.623-0.418,3.936-0.78v-15.06h-10.719v-4.747h16.551v23.673c-2.441,0.77-4.771,1.335-6.986,1.696
			c-2.217,0.36-4.477,0.543-6.783,0.543c-3.844,0-7.338-0.587-10.48-1.765c-3.143-1.175-5.822-2.824-8.037-4.952
			c-2.217-2.124-3.936-4.69-5.156-7.698c-1.221-3.007-1.832-6.342-1.832-10.005c0-3.527,0.645-6.749,1.934-9.666
			s3.074-5.428,5.359-7.529c2.283-2.104,5.008-3.742,8.174-4.919c3.164-1.176,6.648-1.763,10.445-1.763
			c2.217,0,4.354,0.158,6.412,0.475c2.057,0.316,4.148,0.928,6.273,1.831L209.507,14.646z"/>
		<path fill="#3E3E40" d="M243.22,6.438c3.256,0,6.217,0.577,8.887,1.729c2.668,1.154,4.951,2.805,6.85,4.952
			c1.9,2.149,3.369,4.714,4.41,7.698c1.039,2.985,1.561,6.311,1.561,9.972c0,3.755-0.521,7.135-1.561,10.142
			c-1.041,3.008-2.533,5.575-4.477,7.699c-1.945,2.126-4.273,3.765-6.988,4.918c-2.713,1.153-5.766,1.729-9.156,1.729
			c-3.393,0-6.457-0.576-9.191-1.729c-2.736-1.153-5.088-2.78-7.055-4.884s-3.482-4.646-4.545-7.631s-1.594-6.309-1.594-9.972
			c0-3.799,0.543-7.213,1.627-10.244c1.086-3.028,2.623-5.606,4.613-7.731s4.385-3.765,7.189-4.919
			C236.595,7.015,239.737,6.438,243.22,6.438z M242.608,11.119c-2.396,0-4.578,0.475-6.545,1.424s-3.664,2.283-5.088,4.002
			s-2.521,3.788-3.289,6.207c-0.77,2.42-1.154,5.099-1.154,8.037c0,2.985,0.385,5.688,1.154,8.106c0.768,2.42,1.865,4.5,3.289,6.241
			s3.131,3.076,5.121,4.002c1.99,0.928,4.207,1.392,6.648,1.392c2.35,0,4.51-0.464,6.479-1.392c1.967-0.926,3.65-2.248,5.053-3.968
			c1.4-1.718,2.486-3.787,3.256-6.207c0.77-2.419,1.154-5.098,1.154-8.038c0-3.029-0.373-5.776-1.121-8.242
			c-0.746-2.464-1.82-4.545-3.221-6.24c-1.402-1.696-3.1-3.007-5.088-3.935C247.267,11.582,245.052,11.119,242.608,11.119z"/>
	</g>
	<g>
		<g>
			<path fill="#0275D8" d="M57.576,15.369c-2.759-4.728-6.502-8.471-11.229-11.23C41.618,1.381,36.455,0,30.857,0
				c-5.599,0-10.761,1.381-15.489,4.139c-4.728,2.76-8.471,6.503-11.23,11.23S0,25.26,0,30.857c0,5.599,1.379,10.762,4.138,15.488
				c2.759,4.729,6.502,8.473,11.23,11.23c4.728,2.759,9.89,4.139,15.489,4.139c5.598,0,10.761-1.38,15.489-4.139
				c4.727-2.758,8.471-6.502,11.229-11.23c2.759-4.727,4.139-9.89,4.139-15.488C61.714,25.26,60.334,20.097,57.576,15.369z
				 M16.935,16.936c1.005-1.004,2.216-1.507,3.636-1.507c1.419,0,2.632,0.503,3.636,1.507s1.507,2.217,1.507,3.637
				s-0.502,2.631-1.507,3.636s-2.217,1.507-3.636,1.507c-1.42,0-2.631-0.502-3.636-1.507c-1.004-1.005-1.506-2.216-1.506-3.636
				S15.931,17.939,16.935,16.936z M45.562,38.049c-0.991,3.242-2.839,5.854-5.544,7.836c-2.706,1.982-5.76,2.973-9.161,2.973
				c-3.402,0-6.456-0.99-9.161-2.973c-2.706-1.982-4.554-4.594-5.544-7.836c-0.215-0.668-0.161-1.318,0.161-1.948
				c0.321-0.629,0.83-1.051,1.527-1.266c0.669-0.214,1.319-0.161,1.949,0.161c0.629,0.321,1.051,0.83,1.266,1.526
				c0.669,2.144,1.908,3.878,3.716,5.203c1.808,1.326,3.837,1.989,6.087,1.989s4.279-0.663,6.087-1.989
				c1.808-1.325,3.046-3.06,3.716-5.203c0.214-0.696,0.643-1.205,1.286-1.526c0.643-0.322,1.299-0.375,1.969-0.161
				c0.669,0.215,1.166,0.637,1.487,1.266C45.723,36.73,45.776,37.381,45.562,38.049z M44.779,24.208
				c-1.004,1.005-2.216,1.507-3.636,1.507c-1.42,0-2.632-0.502-3.636-1.507S36,21.992,36,20.572s0.502-2.633,1.507-3.637
				s2.216-1.507,3.636-1.507c1.419,0,2.631,0.503,3.636,1.507c1.005,1.004,1.507,2.217,1.507,3.637S45.784,23.203,44.779,24.208z"/>
		</g>
	</g>
</g>
</svg>
